<?xml version="1.0" encoding="UTF-8"?>
<svg width="613px" height="432px" viewBox="0 0 613 432" version="1.1" xmlns="http://www.w3.org/2000/svg" xmlns:xlink="http://www.w3.org/1999/xlink">
    <!-- Generator: Sketch 60.1 (88133) - https://sketch.com -->
    <title>男人坐姿看书</title>
    <desc>Created with Sketch.</desc>
    <defs>
        <path d="M210.112199,1.86796522 L202.420757,29.8116 L215.073123,49.3485391 C215.073123,49.3485391 88.7973817,55.7781913 81.6026309,55.7781913 L81.6026309,55.7781913 C74.408735,55.7781913 62.0042871,41.1881217 57.7862618,39.704487 L57.7862618,39.704487 C53.5690915,38.2208522 48.1106215,38.9622435 29.5039495,38.9622435 L29.5039495,38.9622435 C10.8981325,38.9622435 9.90646057,43.1660174 9.90646057,44.6505043 L9.90646057,44.6505043 C1.71918297,44.6505043 4.69590852,52.8100696 4.69590852,52.8100696 L4.69590852,52.8100696 C4.69590852,52.8100696 0.2299653,54.0474261 0.2299653,57.7569391 L0.2299653,57.7569391 C0.2299653,62.7038087 9.90646057,62.950087 9.90646057,62.950087 L9.90646057,62.950087 C9.90646057,62.950087 6.92888013,64.4337217 6.92888013,66.9067304 L6.92888013,66.9067304 C6.92888013,73.8314957 20.0779369,74.0777739 27.7676688,74.0777739 L27.7676688,74.0777739 C23.5513533,78.5295304 18.1014322,78.7843304 16.5181767,80.9462957 L16.5181767,80.9462957 C15.4102397,82.4606087 15.1153028,83.7959652 15.1153028,84.7120522 L15.1153028,84.7120522 C15.1153028,86.9379304 33.2261388,86.195687 34.4665836,85.7014261 L34.4665836,85.7014261 C35.7061735,85.2071652 38.435836,83.9698087 43.3976151,83.9698087 L43.3976151,83.9698087 C48.3602492,83.9698087 61.2596782,86.6908 70.9353186,86.6908 L70.9353186,86.6908 C80.610959,86.6908 84.8281293,83.9698087 89.2940726,83.9698087 L89.2940726,83.9698087 C89.2940726,83.9698087 153.051738,96.0877217 181.829032,97.0770957 L181.829032,97.0770957 C210.60718,98.0664696 256.378823,91.2661217 259.977054,87.6801739 L259.977054,87.6801739 C263.573574,84.0942261 270.14853,79.766887 270.14853,65.175113 L270.14853,65.175113 C270.14853,50.5858957 259.480363,15.2223826 259.480363,15.2223826 L259.480363,15.2223826 C259.480363,15.2223826 240.873691,0.136347826 239.881164,0.136347826 L239.881164,0.136347826 C238.889492,0.136347826 210.112199,1.86796522 210.112199,1.86796522" id="path-1"></path>
        <polygon id="path-3" points="0.251275523 0.74592 107.303177 0.74592 107.303177 178.654158 0.251275523 178.654158"></polygon>
    </defs>
    <g id="页面-1" stroke="none" stroke-width="1" fill="none" fill-rule="evenodd">
        <g id="画板" transform="translate(-1969.000000, -4612.000000)">
            <g id="男人坐姿看书" transform="translate(1969.000000, 4612.000000)">
                <g id="编组">
                    <path d="M157.139278,300.512032 C157.139278,300.512032 123.87864,353.637766 105.262229,365.801347 C86.6458171,377.965782 16.6493073,407.754962 16.6493073,407.754962 C16.6493073,407.754962 -2.46319972,409.492372 0.267036236,418.926226 C4.48641404,424.884404 13.1740728,427.366907 65.5472174,422.153822 C81.1853452,421.16065 107.496369,428.111145 137.282628,428.111145 C150.437712,428.111145 146.217479,414.458234 145.225288,410.4864 C144.232241,406.513711 142.246149,391.122535 144.97724,386.902622 C147.707476,382.682709 255.432904,268.736507 260.149233,264.516594 C270.077986,273.701513 329.897695,367.539612 342.308636,378.71002 C354.719577,389.882139 382.519743,406.017552 401.384202,406.017552 C480.068371,406.017552 502.160017,374.241172 511.095723,359.843168 C520.031429,345.445164 436.133981,301.009046 436.133981,301.009046 C436.133981,301.009046 300.608387,188.30495 284.226116,182.098693 C267.843845,175.892436 260.645328,168.444927 245.256104,177.629846 C229.866879,186.814764 157.139278,300.512032 157.139278,300.512032" id="Fill-1" fill="#FEDDCC"></path>
                    <path d="M154.409127,294.305945 L119.659348,342.466674 L165.578974,382.68288 C165.578974,382.68288 256.421759,267.852147 260.149318,264.516765 C270.077216,273.701684 329.89778,367.538928 342.308721,378.710191 C354.718807,389.88231 388.476396,418.430238 407.340855,418.430238 C486.025879,418.430238 502.159247,374.241343 511.095809,359.843339 C520.031515,345.445335 436.134067,301.009217 436.134067,301.009217 C436.134067,301.009217 300.608473,188.304266 284.226202,182.098864 C267.843931,175.892607 260.645414,168.445098 245.256189,177.630017 C229.866964,186.814935 154.409127,294.305945 154.409127,294.305945" id="Fill-3" fill="#594B42"></path>
                    <path d="M482.30234,92.4809347 L488.259763,77.0897584 C488.259763,77.0897584 526.991136,109.793442 539.391813,112.340958 C551.79249,114.88762 521.769303,130.462717 521.769303,130.462717 L513.080789,141.385901 C513.080789,141.385901 500.670704,118.299137 478.33101,122.27097 C455.991316,126.242804 482.30234,92.4809347 482.30234,92.4809347" id="Fill-5" fill="#FEDDCC"></path>
                    <path d="M477.717391,122.3714 C477.918395,122.340604 478.121965,122.308097 478.331523,122.270457 C483.448149,121.361118 488.042165,121.87353 492.087909,123.200326 C493.06556,117.503059 490.855369,100.414679 490.855369,100.414679 L477.717391,122.3714 Z" id="Fill-7" fill="#D88866"></path>
                    <path d="M420.744757,299.271465 C433.651793,322.854387 436.133981,390.626205 440.354215,415.451235 C444.573592,440.275409 505.634396,390.874284 508.613535,386.902451 C511.591819,382.930617 510.350724,353.141437 526.2369,338.494498 C542.12222,323.84756 574.638715,283.135195 574.638715,283.135195 L541.626125,112.09228 C541.626125,112.09228 525.988852,102.659282 524.995806,103.652455 C521.768619,105.637944 519.286431,120.284882 506.87549,134.434807 C503.649158,136.172217 473.366804,190.787282 471.132664,211.143465 C468.898524,231.499647 457.976724,283.135195 447.552731,285.120684 C437.127028,287.107029 407.83772,275.687686 420.744757,299.271465" id="Fill-9" fill="#9C352A"></path>
                    <path d="M511.591733,141.385815 C511.591733,141.385815 501.166885,160.004588 499.925791,170.678837 C498.684696,181.353942 497.939698,211.639281 499.42884,214.370718 C500.917982,217.101301 505.63431,266.502425 509.1104,275.935423 C512.584779,285.369277 529.215098,304.732287 529.215098,304.732287 L561.483545,304.732287 L564.958779,284.128025 L528.222052,185.821934 C528.222052,185.821934 513.080875,171.920089 511.839781,170.926916 C510.599542,169.9346 511.591733,141.385815 511.591733,141.385815" id="Fill-11" fill="#5B1D12"></path>
                    <path d="M441.318778,303.821922 C429.556183,304.372829 421.203816,304.732116 419.503406,304.732116 C412.305745,304.732116 399.894804,290.086032 395.675426,288.596702 C391.455193,287.107371 385.993865,287.851609 367.378309,287.851609 C348.761898,287.851609 347.769707,292.072377 347.769707,293.561708 C339.578143,293.561708 342.556427,301.753454 342.556427,301.753454 C342.556427,301.753454 338.089002,302.994706 338.089002,306.71846 C338.089002,311.683466 347.769707,311.931545 347.769707,311.931545 C347.769707,311.931545 344.790568,313.421731 344.790568,315.903379 C344.790568,322.85473 357.945652,323.102809 365.640264,323.102809 C361.421742,327.571656 355.969823,327.827434 354.385739,329.9977 C353.276367,331.516971 352.982131,332.857454 352.982131,333.777914 C352.982131,336.012337 371.101591,335.267244 372.342686,334.771086 C373.58378,334.274072 376.314016,333.032821 381.278392,333.032821 C386.242768,333.032821 399.149805,335.763403 408.83051,335.763403 C418.511215,335.763403 422.730593,333.032821 427.198018,333.032821 C427.198018,333.032821 472.069002,341.588131 503.530865,344.93549 C487.877341,330.070413 454.224104,310.922975 441.318778,303.821922" id="Fill-13" fill="#3D2C23"></path>
                    <path d="M574.638629,283.135024 L568.13208,249.419349 C559.436723,249.93005 548.079557,250.614406 548.079557,250.614406 L540.384945,278.666177 L553.043934,298.278121 C553.043934,298.278121 475.467427,302.2414 438.428765,303.956569 C428.45468,311.783895 418.759434,321.116806 418.759434,321.116806 C418.759434,321.116806 420.636043,326.034763 423.352594,333.560973 C424.69975,333.24959 425.939133,333.033163 427.198189,333.033163 C427.198189,333.033163 484.353524,358.344086 514.073921,359.843682 C515.799991,357.067761 522.315094,341.233464 524.747673,338.990486 C540.632993,324.344402 574.638629,283.135024 574.638629,283.135024" id="Fill-15" fill="#5B1D12"></path>
                    <path d="M328.16119,166.745156 C328.16119,166.745156 366.633396,145.109228 372.838867,144.613069 C378.051291,152.308657 438.119903,232.740214 438.119903,232.740214 C438.119903,232.740214 386.986997,248.629259 385.497855,260.047747 C384.008713,271.467945 383.26457,273.205354 383.26457,273.205354 L328.16119,166.745156 Z" id="Fill-17" fill="#B9B9B9"></path>
                    <path d="M244.014924,217.846308 C244.014924,217.846308 270.0779,164.472494 289.935406,159.01133 C309.792056,153.550166 330.145657,164.224415 333.372844,173.658269 C336.599175,183.091267 394.681695,280.901199 394.681695,280.901199 L388.973175,289.341025 L352.733399,301.505461 L342.556598,301.75354 C342.556598,301.75354 297.878066,257.814435 244.014924,217.846308" id="Fill-19" fill="#FAFAFA"></path>
                    <path d="M333.372587,173.658012 C330.146256,164.225014 309.792655,153.549909 289.935149,159.011073 C289.410828,159.155644 383.512447,290.334796 383.512447,290.334796 L388.824946,289.39124 C388.920743,289.358733 389.003711,289.296285 389.060163,289.211596 L394.682294,280.900943 C394.682294,280.900943 336.598919,183.09101 333.372587,173.658012" id="Fill-21" fill="#DEDEDE"></path>
                    <path d="M123.36099,397.768919 C122.771663,397.768919 122.153254,397.729568 121.504909,397.644024 C120.919858,397.567034 120.508441,397.030669 120.585421,396.444689 C120.662402,395.86042 121.183302,395.449806 121.784604,395.525085 C130.162631,396.632887 132.434406,388.696919 132.527638,388.359018 C132.684164,387.791002 133.275202,387.459089 133.839725,387.609648 C134.409379,387.765339 134.744671,388.349608 134.591566,388.918479 C134.565051,389.014289 132.091416,397.768919 123.36099,397.768919" id="Fill-23" fill="#180000"></path>
                    <path d="M266.354276,218.954025 C266.298679,218.954025 266.242227,218.941193 266.190051,218.913819 C266.011286,218.823141 265.940293,218.604147 266.030958,218.426215 C266.080568,218.328694 271.085145,208.571482 278.956812,198.12307 C283.584186,191.980971 288.284263,186.802959 292.926177,182.731038 C298.746746,177.625739 304.496322,174.253573 310.014957,172.706928 C317.050104,170.736836 323.803846,171.704345 330.088007,175.582935 C330.25822,175.688155 330.312106,175.912282 330.206899,176.082516 C330.101693,176.253605 329.877595,176.306642 329.707382,176.201423 C323.602842,172.433185 317.043262,171.49305 310.211684,173.405827 C297.932465,176.845573 286.757486,188.978357 279.544429,198.549937 C271.70783,208.949589 266.727203,218.658896 266.677593,218.756417 C266.613443,218.881312 266.485998,218.954025 266.354276,218.954025" id="Fill-25" fill="#180000"></path>
                    <path d="M283.729165,230.124946 C283.671858,230.124946 283.613695,230.111259 283.559809,230.083029 C283.382754,229.98893 283.315182,229.76908 283.408414,229.592003 C283.44947,229.514158 287.599566,221.72276 294.183095,213.327417 C300.274806,205.559971 309.759639,195.668455 320.353844,192.655575 C326.613201,190.875393 332.641616,191.644439 338.2723,194.942181 C338.445078,195.043979 338.504097,195.266395 338.401456,195.439195 C338.300526,195.611995 338.078994,195.670166 337.905361,195.569223 C332.452587,192.374989 326.614056,191.629896 320.553137,193.353619 C310.149672,196.312605 300.785442,206.086926 294.762158,213.765405 C288.216264,222.111132 284.090973,229.854625 284.049917,229.931615 C283.984911,230.054799 283.859177,230.124946 283.729165,230.124946" id="Fill-27" fill="#180000"></path>
                    <path d="M300.359826,246.012537 C300.294821,246.012537 300.22896,245.994573 300.169086,245.958644 C299.998874,245.852569 299.945843,245.630153 300.05105,245.459064 C300.101515,245.376941 305.18906,237.177495 312.248156,228.783864 C321.759505,217.474018 330.129833,211.214723 337.125635,210.18049 C340.86688,209.627016 344.195852,210.611634 347.016753,213.105258 C347.167293,213.237852 347.181833,213.467967 347.047546,213.61767 C346.915824,213.768228 346.686593,213.782771 346.536054,213.649321 C343.882798,211.30369 340.752265,210.378097 337.231697,210.899064 C330.512169,211.892236 322.06486,218.237931 312.802415,229.250937 C305.777531,237.604363 300.719068,245.759325 300.668603,245.840592 C300.600176,245.9518 300.481284,246.012537 300.359826,246.012537" id="Fill-29" fill="#180000"></path>
                    <path d="M319.224457,263.3904 C319.168004,263.3904 319.109842,263.376713 319.055955,263.348483 C318.878901,263.256095 318.810474,263.036246 318.90285,262.858313 C318.936208,262.79501 322.325054,256.365481 327.599062,249.552713 C332.483892,243.242947 340.035663,235.299279 348.272559,233.290693 C352.99402,232.140974 357.487961,233.02465 361.628648,235.918622 C361.793728,236.034107 361.833073,236.259945 361.719313,236.425046 C361.603843,236.588436 361.377179,236.629497 361.213809,236.514012 C357.250177,233.744935 352.954674,232.897188 348.444482,233.997291 C340.412012,235.955406 332.98683,243.778455 328.172993,249.997545 C322.93833,256.759842 319.579422,263.132055 319.546063,263.195358 C319.481058,263.319398 319.354468,263.3904 319.224457,263.3904" id="Fill-31" fill="#180000"></path>
                    <path d="M338.089429,176.751902 C337.957707,176.751902 337.829407,176.680044 337.765256,176.554294 C337.674591,176.375506 337.745584,176.156512 337.924349,176.065834 L371.432179,158.936393 C371.610945,158.84486 371.829911,158.915862 371.921432,159.09465 C372.012098,159.272583 371.94196,159.491577 371.763195,159.58311 L338.253654,176.711696 C338.201478,176.73907 338.144171,176.751902 338.089429,176.751902" id="Fill-33" fill="#180000"></path>
                    <path d="M346.776489,192.391328 C346.645623,192.391328 346.519033,192.320326 346.454027,192.195431 C346.362506,192.017499 346.431788,191.798505 346.609698,191.706116 L379.621433,174.576675 C379.800198,174.484287 380.019165,174.554433 380.111541,174.73151 C380.203918,174.909443 380.134635,175.129293 379.95587,175.221681 L346.94328,192.350267 C346.890249,192.378497 346.832941,192.391328 346.776489,192.391328" id="Fill-35" fill="#180000"></path>
                    <path d="M356.705584,211.258351 C356.577284,211.258351 356.451549,211.18906 356.385688,211.068442 C356.290746,210.89222 356.355751,210.671515 356.531951,210.575705 L391.282586,191.708854 C391.45793,191.613899 391.679462,191.678913 391.774404,191.855135 C391.870202,192.031357 391.804341,192.252062 391.628142,192.347872 L356.878362,211.213868 C356.823621,211.243808 356.763747,211.258351 356.705584,211.258351" id="Fill-37" fill="#180000"></path>
                    <path d="M369.61245,230.124946 C369.48757,230.124946 369.364402,230.059932 369.297686,229.942736 C369.198466,229.768225 369.25834,229.546665 369.431973,229.447433 L403.189562,210.083568 C403.363195,209.98348 403.584728,210.044217 403.684802,210.217872 C403.784021,210.392383 403.724148,210.613944 403.550514,210.714031 L369.792926,230.076185 C369.736473,230.109548 369.674034,230.124946 369.61245,230.124946" id="Fill-39" fill="#180000"></path>
                    <path d="M501.578302,93.0164436 C501.578302,93.0164436 503.398459,70.7184 503.398459,62.754202 C503.398459,45.4613703 491.568292,33.629703 487.245418,27.2592 C482.922545,20.8878416 474.050133,0.637734653 446.294445,0.637734653 C432.409758,0.637734653 422.634111,5.1878495 422.634111,5.1878495 C408.301227,15.4266772 414.215883,19.0674535 403.523314,19.0674535 C392.830746,19.0674535 383.730814,67.7602693 390.10051,77.7715485 C395.089691,84.3704554 399.427961,99.1602535 415.126817,93.0164436 C430.823963,86.8726337 417.856198,72.0828356 417.856198,72.0828356 L473.595094,87.7828277 L501.578302,93.0164436 Z" id="Fill-41" fill="#5B423E"></path>
                    <path d="M401.703499,50.9224491 C401.703499,50.9224491 409.439168,85.7348055 417.62902,90.7408729 C425.818873,95.7469402 430.141746,103.482734 429.232523,110.991835 C428.321589,118.500081 439.242533,115.314402 439.242533,115.314402 C439.242533,115.314402 459.64831,136.475558 470.8652,134.200073 C482.082946,131.924588 490.658555,100.069507 490.658555,100.069507 L468.363339,55.7001125 C468.363339,55.7001125 418.311579,26.1213719 401.703499,50.9224491" id="Fill-43" fill="#FEDDCC"></path>
                    <path d="M405.57082,77.0887319 C405.57082,77.0887319 425.819215,89.1479477 435.601705,77.3162804 C445.385051,65.4846131 461.082197,92.5611754 463.129874,94.154015 C465.178406,95.7468547 464.950031,93.243821 464.494992,92.3336269 C464.039952,91.4234329 457.897777,73.4488111 455.62258,72.3110685 C453.346528,71.1724705 464.039952,60.2509972 467.680267,68.6702923 C471.319726,77.0887319 468.362826,84.8245259 466.770188,85.2804784 C469.727944,86.1906725 472.912364,92.1060784 475.6426,92.3336269 C478.372836,92.5611754 501.578131,93.0162725 501.578131,93.0162725 L493.843318,65.4846131 L464.039952,47.5091358 L431.506351,35.6774685 C431.506351,35.6774685 400.111204,34.3121774 400.111204,35.2223715 C400.111204,36.1325655 398.746086,62.9815794 398.746086,62.9815794 L405.57082,77.0887319 Z" id="Fill-45" fill="#5B423E"></path>
                    <path d="M433.340878,92.7708451 C434.649544,94.6151857 434.839429,96.7298471 433.763415,97.49376 C432.687401,98.2576729 430.754339,97.3816966 429.444818,95.5365006 C428.136152,93.6930154 427.946267,91.5783541 429.022281,90.8144412 C430.098295,90.0505283 432.032213,90.9265046 433.340878,92.7708451" id="Fill-47" fill="#282727"></path>
                    <path d="M450.162023,122.473283 C450.067936,122.473283 449.972138,122.433077 449.906277,122.353521 C449.789096,122.212372 449.807913,122.002788 449.949044,121.885592 C450.002075,121.841109 455.23075,117.423588 454.165,113.583493 C454.115391,113.406416 454.218887,113.22335 454.395941,113.173735 C454.572996,113.124974 454.756038,113.228483 454.805648,113.40556 C455.986868,117.659691 450.605087,122.204673 450.375002,122.396293 C450.313417,122.448475 450.237292,122.473283 450.162023,122.473283" id="Fill-49" fill="#CB4D4B"></path>
                    <path d="M466.315577,78.7867057 C466.301036,78.7875612 466.284785,78.7858503 466.269388,78.7841394 C466.087202,78.758476 465.960612,78.5908087 465.985417,78.4085988 C467.11104,70.3023968 464.193485,69.1347137 463.234653,68.7514741 C462.694079,68.5350463 461.12197,69.5564483 459.497685,71.180084 L459.028105,70.7095889 C459.962988,69.7737315 462.271543,67.6496602 463.481845,68.1338424 C464.55957,68.5649869 467.841498,69.8780958 466.644881,78.5001315 C466.621787,78.6660879 466.479801,78.7867057 466.315577,78.7867057 L466.315577,78.7867057 Z" id="Fill-51" fill="#CB4D4B"></path>
                    <path d="M461.993045,75.3736491 C461.893826,75.3736491 461.795462,75.3300214 461.729601,75.2453323 C461.617552,75.100762 461.643212,74.8911778 461.78862,74.778259 C463.666085,73.3180135 463.258089,68.9749164 463.254667,68.9304333 C463.23585,68.7473679 463.369283,68.5848333 463.552325,68.5660135 C463.736222,68.5480491 463.897881,68.6814986 463.915843,68.864564 C463.935516,69.0578947 464.36404,73.6174194 462.196615,75.3035026 C462.135887,75.3514075 462.064038,75.3736491 461.993045,75.3736491" id="Fill-53" fill="#CB4D4B"></path>
                    <path d="M493.843489,65.4846986 L464.040123,47.5092214 L458.900403,45.6400729 C456.417359,56.6522234 451.786564,67.2024333 443.588159,74.6858709 C452.270685,77.245364 461.585306,92.9521996 463.130045,94.1541006 C465.177722,95.7469402 464.950202,93.2439065 464.494307,92.3337125 C464.040123,91.4235184 457.897948,73.4488966 455.621896,72.3102986 C453.346699,71.172556 464.040123,60.2510828 467.680438,68.6703778 C471.319897,77.0888174 468.362997,84.8246115 466.770359,85.280564 C469.728115,86.190758 472.912535,92.106164 475.642771,92.3337125 C478.373007,92.561261 501.578302,93.016358 501.578302,93.016358 L493.843489,65.4846986 Z" id="Fill-55" fill="#442F2A"></path>
                    <path d="M501.578302,93.0164436 C501.578302,93.0164436 503.398459,70.7184 503.398459,62.754202 C503.398459,45.4613703 491.568292,33.629703 487.245418,27.2592 C483.766763,22.130804 477.336338,8.01424158 460.488764,2.69935842 C461.688802,13.5977347 462.690402,32.9821307 457.718327,50.2612752 C454.528775,61.3418614 501.578302,93.0164436 501.578302,93.0164436" id="Fill-57" fill="#442F2A"></path>
                    <path d="M385.498026,234.727157 L386.491073,253.594009 C386.491073,253.594009 378.952132,273.282088 397.3453,278.028955 C398.976428,278.449834 405.128868,272.696108 404.362486,268.240092 C403.579852,263.689122 403.204359,261.955989 406.100531,258.31008 C415.188487,246.86764 435.637886,243.663141 435.637886,243.663141 L428.935465,236.464567 C428.935465,236.464567 408.333816,230.01023 407.589672,229.761296 C406.844674,229.513217 385.498026,234.727157 385.498026,234.727157" id="Fill-59" fill="#E5A993"></path>
                    <path d="M388.487515,273.858744 C388.200977,273.858744 387.917861,273.750102 387.698894,273.532819 C382.163153,268.022039 383.820796,255.462387 383.89521,254.9303 C383.979889,254.316946 384.556386,253.894356 385.155122,253.976478 C385.765832,254.059457 386.194356,254.624051 386.109678,255.234839 C386.094282,255.355457 384.530726,267.222197 389.276136,271.947678 C389.714924,272.3831 389.714924,273.092265 389.280412,273.528542 C389.061446,273.748391 388.773198,273.858744 388.487515,273.858744" id="Fill-61" fill="#180000"></path>
                    <path d="M393.68882,277.044166 C393.533148,277.044166 393.389452,276.943224 393.342408,276.785822 C391.003061,269.107343 391.742073,262.289442 392.772754,257.921537 C393.889824,253.184935 395.539769,250.30465 395.609052,250.184887 C395.709126,250.010376 395.931514,249.952206 396.104292,250.052293 C396.277925,250.15238 396.337799,250.374796 396.236869,250.547596 C396.220618,250.577537 394.56383,253.474931 393.47242,258.115723 C392.466543,262.389529 391.74806,269.062004 394.036087,276.574527 C394.095105,276.767002 393.987332,276.969743 393.794882,277.027913 C393.759813,277.038178 393.723889,277.044166 393.68882,277.044166" id="Fill-63" fill="#180000"></path>
                    <path d="M400.640144,277.798498 C400.159445,277.798498 399.718946,277.488827 399.570118,277.0055 C394.99663,261.997564 401.622071,250.296779 401.906043,249.805754 C402.21653,249.270245 402.9008,249.092312 403.433675,249.398562 C403.968261,249.706522 404.149592,250.390023 403.840816,250.925532 C403.778376,251.037595 397.430064,262.309801 401.710171,276.355362 C401.888936,276.945619 401.557066,277.570094 400.965172,277.749738 C400.858255,277.7831 400.747061,277.798498 400.640144,277.798498" id="Fill-65" fill="#180000"></path>
                    <path d="M420.744757,431.587419 C416.524524,428.856836 425.213038,422.898658 426.950227,421.409328 C428.687417,419.919141 394.433733,397.57747 407.83772,328.067387 C407.092722,318.634389 410.071005,303.491292 401.880297,296.788876 C393.688734,290.08646 381.238448,268.432567 385.498026,257.316908 C387.028224,254.39385 391.455449,256.57267 391.455449,256.57267 C391.455449,256.57267 434.396792,239.692163 445.814687,248.131989 C451.523206,248.131989 453.013203,247.63583 452.019302,252.104678 C451.027111,256.57267 486.521889,289.093288 485.280795,296.788876 C484.039701,304.484464 498.003934,339.567141 499.460573,341.63732 C500.918067,343.708353 502.160017,407.507482 496.698689,415.947308 C496.698689,419.422983 502.408064,425.381161 498.684782,424.636068 C494.9615,423.89183 493.720406,420.4153 493.720406,420.4153 C493.720406,420.4153 437.871171,428.608757 433.651793,428.111743 C429.432415,427.61473 420.744757,431.587419 420.744757,431.587419" id="Fill-67" fill="#F9D395"></path>
                    <path d="M385.829641,257.467466 C383.331201,264.025312 386.960396,273.490817 389.347642,278.552488 C392.799782,285.870825 397.929239,293.086508 402.110127,296.50829 C408.408829,301.662349 408.248025,311.527347 408.106039,320.232361 C408.059851,323.055331 408.016229,325.7209 408.199271,328.039157 L408.202693,328.088773 L408.193284,328.136678 C397.084166,385.750935 418.42226,410.409153 425.434313,418.512789 C426.937996,420.250199 427.410997,420.822492 427.375073,421.304963 C427.364809,421.457232 427.298093,421.588116 427.186899,421.684781 C426.962801,421.876401 426.640339,422.129613 426.230632,422.450405 C424.162427,424.076607 419.858371,427.457328 419.966143,429.797827 C419.990093,430.336757 420.258669,430.787577 420.782135,431.172528 C422.108763,430.579704 429.719552,427.283672 433.694304,427.751601 C437.817884,428.237494 493.110294,420.138135 493.667973,420.056013 L493.962209,420.014096 L494.062284,420.293827 C494.074259,420.326333 495.287127,423.586436 498.755518,424.280203 C499.29267,424.387989 499.50736,424.318698 499.550127,424.261383 C499.790476,423.936314 498.915466,422.311823 498.335548,421.237383 C497.398954,419.499973 496.33577,417.529882 496.33577,415.947308 L496.33577,415.840377 L496.394788,415.7497 C498.641759,412.277446 500.068461,397.982951 500.309666,376.531799 C500.517513,358.14913 499.756263,342.816124 499.162659,341.843482 C498.405686,340.769042 494.566077,331.522531 491.017284,321.442817 C487.862801,312.486302 484.246436,300.928377 484.923007,296.730706 C485.591025,292.587783 474.374135,280.061494 465.360593,269.996322 C456.57457,260.184361 451.211607,254.06707 451.665791,252.025977 C452.030164,250.387799 452.033586,249.502413 451.681187,249.066991 C451.182525,248.45107 449.748125,248.464757 447.371999,248.486143 C446.892155,248.490421 446.37382,248.495553 445.81443,248.495553 L445.694683,248.495553 L445.598885,248.424551 C434.47095,240.198587 392.015438,256.742048 391.58777,256.910571 L391.439796,256.968741 L391.295245,256.898595 C391.254188,256.87892 387.186205,254.919949 385.829641,257.467466 L385.829641,257.467466 Z M420.714563,431.999743 L420.547773,431.891102 C419.718951,431.354737 419.278452,430.661827 419.241673,429.831189 C419.116794,427.11686 423.452497,423.710476 425.783291,421.879823 C426.123715,421.612068 426.423083,421.375965 426.635207,421.199743 C426.510327,420.865264 425.719141,419.950793 424.885187,418.987561 C421.478379,415.049945 414.387635,406.856488 409.475434,392.305359 C403.399975,374.311062 402.726825,352.690531 407.472235,328.047712 C407.290903,325.707213 407.334525,323.040789 407.379858,320.220385 C407.519278,311.680472 407.677516,302.001961 401.650811,297.069462 C397.393798,293.586088 392.18565,286.269462 388.692454,278.863015 C386.252177,273.690991 382.548568,263.997937 385.159912,257.187735 L385.176163,257.14924 C386.477986,254.661605 389.777877,255.393011 391.470589,256.177454 C392.80577,255.660765 402.983426,251.771054 414.2619,248.836021 C430.404677,244.634928 441.058756,244.276496 445.933322,247.76928 C446.443958,247.768425 446.922091,247.764147 447.365156,247.75987 C450.048348,247.735918 451.526371,247.721375 452.244854,248.610183 C452.76661,249.253478 452.802534,250.255205 452.374865,252.182524 C452.258539,252.705201 452.819641,254.194531 456.1546,258.321201 C458.676134,261.442722 462.186437,265.362373 465.901166,269.512139 C475.492061,280.222318 486.362539,292.36109 485.638924,296.846191 C485.129999,300.00364 487.282882,308.65305 491.701554,321.202436 C495.336736,331.525953 499.101075,340.4953 499.757973,341.427735 C500.60048,342.625359 501.222311,359.624773 501.036702,376.407759 C500.898138,389.056377 500.195906,410.947229 497.063662,416.049106 C497.111561,417.437494 498.10033,419.271569 498.974485,420.893494 C499.947003,422.695062 500.648379,423.99705 500.134322,424.692528 C499.745999,425.218627 498.894083,425.047537 498.612677,424.991933 C495.319629,424.33324 493.884374,421.691625 493.492629,420.816504 C488.883218,421.490595 440.881701,428.494128 434.133091,428.494983 C433.914125,428.494983 433.739636,428.487284 433.609625,428.471886 C429.539076,427.994547 420.982284,431.87827 420.895895,431.917621 L420.714563,431.999743 Z" id="Fill-69" fill="#180000"></path>
                    <path d="M498.684868,424.636068 C502.40815,425.381161 496.698775,419.422983 496.698775,415.947308 C502.159247,407.507482 500.918153,343.707498 499.461514,341.638175 C498.004019,339.567141 484.039786,304.484464 485.28088,296.788876 C486.521974,289.093288 451.027196,256.57267 452.019387,252.103823 C452.051035,251.966096 452.079261,251.833502 452.104921,251.705185 C443.754265,250.875403 424.000255,249.070413 413.473622,249.419434 L413.471056,249.419434 C406.566775,251.254365 400.200501,253.392124 396.109424,254.849803 C393.479262,257.770294 392.534115,262.119379 393.937723,268.489027 C397.16491,283.13511 414.291324,307.959284 414.291324,307.959284 L415.035467,330.302666 C415.035467,330.302666 406.509467,389.877605 431.002045,416.938769 C435.233397,421.613779 438.963522,425.006476 442.238608,427.420543 C458.993806,425.509478 493.720491,420.4153 493.720491,420.4153 C493.720491,420.4153 494.96073,423.89183 498.684868,424.636068" id="Fill-71" fill="#EAB28C"></path>
                    <path d="M499.461685,341.637747 C499.382138,341.525684 499.265813,341.311823 499.118695,341.016694 C482.242894,326.866769 453.11439,310.313042 441.318436,303.821922 C429.555841,304.371973 421.204329,304.732116 419.503919,304.732116 C412.305402,304.732116 399.895317,290.086032 395.675084,288.596702 C395.292748,288.461541 394.900148,288.345201 394.487876,288.244258 C396.980328,291.886745 399.595949,294.9193 401.880554,296.788448 C410.071262,303.490864 407.092978,318.633961 407.837977,328.067815 C407.333328,330.683767 406.897106,333.232139 406.524179,335.714642 C407.308523,335.745438 408.080037,335.763403 408.830168,335.763403 C418.510873,335.763403 422.730251,333.032821 427.198532,333.032821 C427.198532,333.032821 469.499227,354.527601 500.670276,358.10593 C500.520592,356.46433 500.422228,344.452163 499.461685,341.637747" id="Fill-73" fill="#CE9065"></path>
                    <path d="M464.536561,299.844613 C464.451883,299.844613 464.366349,299.815528 464.297922,299.754791 C464.147383,299.622197 464.131131,299.393793 464.264564,299.242379 C464.910343,298.504985 465.166945,297.633286 465.047197,296.579377 C464.403984,290.923171 453.162289,282.766498 453.048529,282.684375 C452.88687,282.568035 452.849235,282.340486 452.967272,282.178807 C453.083598,282.015417 453.311117,281.978633 453.472776,282.095829 C453.947488,282.437152 465.088254,290.523678 465.768246,296.497255 C465.910232,297.748771 465.58777,298.833476 464.809414,299.720573 C464.737565,299.802696 464.637491,299.844613 464.536561,299.844613" id="Fill-75" fill="#180000"></path>
                    <path d="M436.134153,301.371669 C436.09053,301.371669 436.046908,301.36397 436.004141,301.347716 C435.816822,301.275859 435.723591,301.066275 435.795439,300.878932 C435.998154,300.351122 435.555089,298.468287 427.082976,292.401467 C422.339276,289.003637 417.377466,285.959107 417.328712,285.929166 C417.156789,285.823946 417.103758,285.600675 417.208109,285.429586 C417.313315,285.258497 417.536558,285.205459 417.707626,285.310679 C417.757235,285.340619 422.737863,288.397126 427.502946,291.808643 C436.329169,298.12953 436.849214,300.161213 436.472866,301.139843 C436.417269,301.282703 436.280415,301.371669 436.134153,301.371669" id="Fill-77" fill="#180000"></path>
                    <path d="M481.06193,375.101237 C481.053377,375.101237 481.043968,375.101237 481.03627,375.100382 C480.836121,375.086695 480.685582,374.913039 480.699267,374.71372 C483.132701,339.666116 473.122691,336.465039 473.021762,336.437665 C472.8276,336.382916 472.714696,336.183598 472.769437,335.989411 C472.822468,335.796936 473.024328,335.684017 473.215923,335.737055 C473.328828,335.768707 476.014586,336.570259 478.353078,341.86119 C481.380115,348.710742 482.442444,360.088168 481.423738,374.763336 C481.410052,374.954956 481.25096,375.101237 481.06193,375.101237" id="Fill-79" fill="#180000"></path>
                    <path d="M435.637971,347.545711 C435.49513,347.545711 435.360842,347.461022 435.301824,347.321584 C432.290182,340.040887 437.579587,330.760158 437.805396,330.368364 C437.90547,330.194709 438.127858,330.134828 438.301491,330.236626 C438.475125,330.336713 438.534998,330.559129 438.434924,330.732784 C438.380182,330.825172 433.098476,340.096491 435.973264,347.04442 C436.049389,347.229196 435.962144,347.442202 435.776536,347.518337 C435.731203,347.537156 435.68416,347.545711 435.637971,347.545711" id="Fill-81" fill="#180000"></path>
                    <path d="M435.637971,243.663398 C438.119304,243.415319 454.440846,244.150147 465.671422,242.174923 C466.879158,236.533259 468.819918,226.705046 469.623935,221.82644 C460.632632,223.637418 430.459761,229.707659 430.193751,229.640079 C426.386646,228.678558 401.011361,222.370503 393.440772,223.059137 C385.250064,223.80423 371.598029,232.740214 379.788737,253.345331 C382.270925,260.047747 389.966393,257.317164 389.221394,253.345331 C388.476396,249.373497 386.987254,235.471651 394.681866,233.237228 C402.376479,231.002804 408.829997,235.719731 410.319139,237.954154 C407.589758,240.933671 394.681866,252.104079 399.398195,257.317164 C404.114523,262.531105 425.709219,246.890994 425.709219,246.890994 C425.709219,246.890994 433.155783,243.912333 435.637971,243.663398" id="Fill-83" fill="#FEDDCC"></path>
                    <path d="M389.002086,252.360713 C388.814767,252.360713 388.65653,252.216998 388.640278,252.027945 C388.637712,252.003137 388.628304,251.943255 388.614618,251.851723 C387.971405,247.677149 388.076611,244.541085 388.278471,242.645418 C388.859245,237.200507 390.98048,233.917307 394.582305,232.888206 C400.866466,231.12941 407.315708,234.831778 407.587705,234.990036 C407.761339,235.090978 407.819502,235.312539 407.718572,235.486194 C407.616787,235.65985 407.394399,235.71802 407.222476,235.617077 C407.158326,235.580293 400.759549,231.912998 394.779888,233.587105 C387.45136,235.681236 388.757459,248.011628 389.332246,251.74137 C389.351063,251.867976 389.363038,251.946677 389.364749,251.97063 C389.379289,252.169949 389.229605,252.344459 389.029457,252.359857 C389.020048,252.360713 389.011495,252.360713 389.002086,252.360713" id="Fill-85" fill="#180000"></path>
                    <path d="M398.409938,255.49421 C398.281638,255.49421 398.155903,255.42663 398.088332,255.307723 C397.991679,255.136634 395.855046,250.96377 409.444642,238.342527 C409.59176,238.206511 409.82099,238.215065 409.957844,238.362202 C410.093843,238.509339 410.085289,238.738598 409.939027,238.874614 C396.943891,250.944095 398.70503,254.918495 398.723847,254.95699 C398.823066,255.131501 398.759771,255.348784 398.586138,255.448016 C398.530541,255.478812 398.469812,255.49421 398.409938,255.49421" id="Fill-87" fill="#180000"></path>
                    <path d="M427.198189,329.805225 C422.729909,329.805225 418.511386,332.535807 408.829826,332.535807 C399.149976,332.535807 386.242939,329.805225 381.277708,329.805225 C376.314187,329.805225 373.583095,331.046476 372.342857,331.54349 C371.101763,332.039648 352.981446,332.783886 352.981446,330.550318 C352.981446,329.630714 353.276538,328.29023 354.385055,326.770104 C355.969994,324.599838 361.421913,324.34406 365.640435,319.876068 C357.945823,319.876068 344.790739,319.627989 344.790739,312.676638 C344.790739,310.194135 347.769878,308.704805 347.769878,308.704805 C347.769878,308.704805 338.088317,308.456726 338.088317,303.490864 C338.088317,299.767965 342.556598,298.526714 342.556598,298.526714 C342.556598,298.526714 339.578314,290.334112 347.769878,290.334112 C347.769878,288.844781 348.762069,284.624868 367.377625,284.624868 C385.994036,284.624868 391.455364,283.879775 395.675597,285.369961 C399.894975,286.859292 412.305916,301.505375 419.503577,301.505375 C426.702094,301.505375 553.043934,295.051038 553.043934,295.051038 L540.384945,275.439094 L548.079557,247.387324 C548.079557,247.387324 576.87277,245.649914 577.864961,245.649914 C578.858862,245.649914 597.474418,260.793011 597.474418,260.793011 C597.474418,260.793011 608.14817,296.29229 608.14817,310.938373 C608.14817,325.585312 601.569772,329.93012 597.970514,333.529834 C594.371255,337.129549 548.575653,343.956005 519.782441,342.962832 C490.990084,341.96966 427.198189,329.805225 427.198189,329.805225" id="Fill-89" fill="#FFF0E9"></path>
                </g>
                <g id="编组" transform="translate(338.000000, 246.000000)">
                    <mask id="mask-2" fill="white">
                        <use xlink:href="#path-1"></use>
                    </mask>
                    <g id="Clip-92"></g>
                    <path d="M89.2933032,84.4751478 C84.8273599,84.4751478 80.6110445,87.0913217 70.9345492,87.0913217 C61.2597637,87.0913217 48.3594798,84.4751478 43.3968457,84.4751478 C38.4359215,84.4751478 35.706259,85.6647826 34.4666691,86.1402957 C33.2262243,86.6158087 15.1153883,87.3299304 15.1153883,85.1884174 C15.1153883,84.3072696 15.4103252,83.0230435 16.5182621,81.5675304 C18.1023726,79.4873739 23.5514388,79.2419478 27.7677543,74.9614783 C20.0771675,74.9614783 6.92896562,74.7237217 6.92896562,68.0639826 C6.92896562,65.6855652 9.90654606,64.2581739 9.90654606,64.2581739 C9.90654606,64.2581739 0.230050789,64.0204174 0.230050789,59.2635826 C0.230050789,55.6963826 4.69599401,54.5067478 4.69599401,54.5067478 C4.69599401,54.5067478 1.71926845,46.6582261 9.90654606,46.6582261 C9.90654606,45.2308348 10.898218,41.1872696 29.504035,41.1872696 C48.1107069,41.1872696 53.569177,40.474 57.7872022,41.9005391 C62.0043726,43.3279304 74.4088205,57.3615304 81.6027164,57.3615304 C88.7974672,57.3615304 215.073209,51.1773043 215.073209,51.1773043 L202.420843,32.3868696 L210.111429,5.5110087 C210.111429,5.5110087 238.889578,3.84586087 239.88125,3.84586087 C240.874631,3.84586087 259.480448,18.3541217 259.480448,18.3541217 C259.480448,18.3541217 270.148615,52.366087 270.148615,66.3988348 C270.148615,80.4315826 263.57366,84.5944522 259.976284,88.0432 C256.378909,91.4910957 210.607265,98.0323826 181.829117,97.0805043 C153.051824,96.1294783 89.2933032,84.4751478 89.2933032,84.4751478" id="Fill-91" fill="#FEDDCC" mask="url(#mask-2)"></path>
                </g>
                <g id="编组" transform="translate(342.000000, 111.000000)">
                    <path d="M257.38101,157.738941 L203.10578,172.449856 L209.649105,182.57391 L259.177133,164.384425 C258.536821,161.947548 257.92472,159.697664 257.38101,157.738941" id="Fill-93" fill="#D88866"></path>
                    <path d="M1.91007981,187.688619 C1.72969811,187.688619 1.57325331,187.555419 1.55017129,187.371842 C1.5253795,187.172896 1.66643628,186.991881 1.86477066,186.967119 C5.80581167,186.475304 26.56937,185.755512 27.4507612,185.725627 C27.645676,185.718796 27.8192186,185.87505 27.8252028,186.07485 C27.8328968,186.275504 27.6764521,186.442858 27.475553,186.449688 C27.2601208,186.457373 5.86308927,187.198512 1.95538896,187.686058 C1.94000095,187.687765 1.92546782,187.688619 1.91007981,187.688619" id="Fill-95" fill="#180000"></path>
                    <path d="M27.4632426,198.095723 C24.866088,198.095723 2.05164953,198.081208 0.782993375,197.574877 C0.596627445,197.500592 0.506864038,197.289692 0.581239432,197.103554 C0.655614826,196.917415 0.865917666,196.826908 1.0522836,196.902046 C2.00206593,197.246146 17.3669965,197.370808 27.4632426,197.370808 C27.6632868,197.370808 27.8257158,197.533892 27.8257158,197.733692 C27.8257158,197.934346 27.6632868,198.095723 27.4632426,198.095723" id="Fill-97" fill="#180000"></path>
                    <path d="M26.1509016,209.591737 C25.551624,209.591737 24.9301192,209.589175 24.2957912,209.584906 C17.6370562,209.538798 13.1659836,209.254468 11.0048227,208.740452 C8.46751041,208.136783 4.62820126,206.068768 4.46662713,205.980822 C4.29051987,205.886045 4.22554826,205.665752 4.32044101,205.48986 C4.41533375,205.313968 4.63589527,205.248222 4.81200252,205.343852 C4.85132744,205.365198 8.72996151,207.453706 11.173236,208.036029 C16.1863085,209.228852 33.4824347,208.779729 33.6380246,208.770337 L33.6653811,209.131514 L33.9338164,209.375714 C33.8107123,209.509768 33.8107123,209.509768 30.8604883,209.555022 C29.68587,209.573806 28.0248196,209.591737 26.1509016,209.591737" id="Fill-99" fill="#180000"></path>
                    <path d="M20.7927956,221.703203 C16.9457924,221.703203 11.4479975,221.439365 10.5341205,219.97758 L10.5221521,219.957942 C10.2169565,219.392695 10.1827609,218.789026 10.4195653,218.163157 C11.4950164,215.327534 18.1246852,212.859918 18.4067987,212.755749 C18.5948744,212.686588 18.8034675,212.783072 18.8727136,212.970065 C18.9419596,213.157911 18.8453571,213.366249 18.6572814,213.435411 C18.5914549,213.460172 12.055824,215.891072 11.0983476,218.420165 C10.9384833,218.841965 10.956436,219.229611 11.1556252,219.603595 C12.0070953,220.908272 19.6156126,221.09868 24.2234675,220.910834 C24.4260763,220.904003 24.5919249,221.057695 24.6004738,221.258349 C24.6090227,221.458149 24.4525779,221.626357 24.2533886,221.634895 C23.6549659,221.658803 22.3606631,221.703203 20.7927956,221.703203" id="Fill-101" fill="#180000"></path>
                    <g transform="translate(163.283912, 0.000000)">
                        <mask id="mask-4" fill="white">
                            <use xlink:href="#path-3"></use>
                        </mask>
                        <g id="Clip-104"></g>
                        <path d="M32.6293404,0.74592 C20.2248924,0.74592 -1.60642303,29.9841738 0.37777571,67.3997123 C2.36368423,104.814397 15.5118861,128.850166 16.5044129,135.04482 C17.4969397,141.23862 18.9853025,178.654158 32.6293404,178.654158 C46.2742331,178.654158 96.6357789,159.574966 99.8612773,158.336035 C103.085921,157.097105 107.303946,150.159605 107.303946,139.256843 C107.303946,128.354082 83.1157,55.3818277 78.5257978,50.7983815 C73.9358956,46.2140815 45.0337883,0.74592 32.6293404,0.74592" id="Fill-103" fill="#AA3124" mask="url(#mask-4)"></path>
                    </g>
                </g>
            </g>
        </g>
    </g>
</svg>