<?xml version="1.0" encoding="UTF-8"?>
<svg width="515px" height="715px" viewBox="0 0 515 715" version="1.1" xmlns="http://www.w3.org/2000/svg" xmlns:xlink="http://www.w3.org/1999/xlink">
    <!-- Generator: Sketch 60.1 (88133) - https://sketch.com -->
    <title>男人盘腿看书</title>
    <desc>Created with Sketch.</desc>
    <defs>
        <path d="M33.6403876,13.1756082 C33.6403876,13.1756082 36.8883721,34.6845876 35.5896899,36.6397938 L35.5896899,36.6397938 C34.290155,38.5958557 12.5306202,47.0695567 10.2572868,49.3507732 L10.2572868,49.3507732 C7.98310078,51.6319897 0.514186047,59.7796804 0.514186047,59.7796804 L0.514186047,59.7796804 L32.3417054,82.9187113 L76.5122481,82.9187113 C76.5122481,82.9187113 104.766899,64.6681237 105.74155,63.3640825 L105.74155,63.3640825 C106.715349,62.0608969 110.613101,53.2611856 109.63845,52.6100206 L109.63845,52.6100206 C108.663798,51.9571443 93.5767442,47.395567 89.3549612,42.5071237 L89.3549612,42.5071237 C85.1323256,37.6186804 81.5603101,14.4787938 81.5603101,0.791494845 L81.5603101,0.791494845 C63.3727907,6.00509278 33.6403876,13.1756082 33.6403876,13.1756082" id="path-1"></path>
        <polygon id="path-3" points="0.226446013 0.180460526 165.720242 0.180460526 165.720242 141.909279 0.226446013 141.909279"></polygon>
        <polygon id="path-5" points="0 0.336203947 473.357117 0.336203947 473.357117 236.173435 0 236.173435"></polygon>
    </defs>
    <g id="页面-1" stroke="none" stroke-width="1" fill="none" fill-rule="evenodd">
        <g id="画板" transform="translate(-911.000000, -4391.000000)">
            <g id="男人盘腿看书" transform="translate(911.000000, 4390.000000)">
                <g id="编组" transform="translate(165.000000, 167.000000)">
                    <mask id="mask-2" fill="white">
                        <use xlink:href="#path-1"></use>
                    </mask>
                    <g id="Clip-2"></g>
                    <path d="M33.6403876,13.1756082 C33.6403876,13.1756082 36.8883721,34.6845876 35.5896899,36.6397938 L35.5896899,36.6397938 C34.290155,38.5958557 12.5306202,47.0695567 10.2572868,49.3507732 L10.2572868,49.3507732 C7.98310078,51.6319897 0.514186047,59.7796804 0.514186047,59.7796804 L0.514186047,59.7796804 L32.3417054,82.9187113 L76.5122481,82.9187113 C76.5122481,82.9187113 104.766899,64.6681237 105.74155,63.3640825 L105.74155,63.3640825 C106.715349,62.0608969 110.613101,53.2611856 109.63845,52.6100206 L109.63845,52.6100206 C108.663798,51.9571443 93.5767442,47.395567 89.3549612,42.5071237 L89.3549612,42.5071237 C85.1323256,37.6186804 81.5603101,14.4787938 81.5603101,0.791494845 L81.5603101,0.791494845 C63.3727907,6.00509278 33.6403876,13.1756082 33.6403876,13.1756082" id="Fill-1" fill="#FFCEB6" mask="url(#mask-2)"></path>
                </g>
                <g id="编组" transform="translate(0.000000, 1.000000)">
                    <path d="M159.168792,121.691632 C159.168792,121.691632 161.582961,157.356105 192.696831,181.758474 C192.696831,181.758474 209.326541,191.411829 227.565411,188.998276 C245.804282,186.584724 265.237404,161.101303 266.726798,151.457355 C268.215336,141.812553 266.458177,95.1442632 266.458177,95.1442632 L262.434846,76.6415 L229.443194,59.7483421 C229.443194,59.7483421 184.113783,63.5020921 182.236001,64.5745921 C180.358218,65.6470921 151.658517,84.4184079 151.389896,85.4909079 C151.12213,86.5634079 147.903808,102.921171 147.903808,102.921171 L159.168792,121.691632 Z" id="Fill-3" fill="#FEDDCC"></path>
                    <g transform="translate(115.490033, 0.000000)">
                        <mask id="mask-4" fill="white">
                            <use xlink:href="#path-3"></use>
                        </mask>
                        <g id="Clip-6"></g>
                        <path d="M84.4486221,66.4520658 C84.4486221,66.4520658 93.0316703,94.3396316 47.70226,115.5245 C45.2880905,117.13325 50.6528164,136.172263 53.8711387,140.999368 C54.9439128,142.339566 53.0661304,141.803316 53.0661304,141.803316 C53.0661304,141.803316 48.238647,138.049566 45.0194693,124.910158 C43.9466952,121.691803 31.6080822,111.502197 30.5353081,112.038447 C29.4625341,112.574697 24.6350507,113.647197 24.6350507,113.647197 C24.6350507,113.647197 -8.0879809,70.7429211 15.51476,45.53575 C19.002559,40.9771974 20.0744776,39.9046974 20.0744776,39.9046974 C20.0744776,39.9046974 2.10422841,40.7086447 0.226446013,37.2234474 C2.90923671,35.3461447 21.4158729,26.7652895 29.9997766,18.7198289 C38.5819693,10.6760789 57.3580822,-4.60918421 94.6408314,2.09436842 C120.658597,-5.14543421 133.264976,10.1398289 137.825549,14.9660789 C142.385267,19.7931842 156.332185,33.7373947 160.08775,33.2011447 C154.991645,35.8823947 143.189419,36.1500921 142.116645,35.3461447 C144.529959,36.9548947 161.42829,34.5413421 165.720242,56.2616053 C165.720242,59.7485132 161.160524,78.2504211 161.160524,78.2504211 C161.160524,78.2504211 149.090532,80.1277237 148.285524,85.4910789 C147.481371,90.8544342 149.626064,109.357197 147.749137,112.574697 C145.87221,115.792197 146.676363,91.6583816 142.921654,88.1723289 C139.166089,84.6862763 132.460823,86.8321316 126.828331,86.2958816 C121.194984,85.7587763 96.2499925,83.0775263 84.4486221,66.4520658" id="Fill-5" fill="#5B423E" mask="url(#mask-4)"></path>
                    </g>
                    <path d="M263.239256,86.8317895 C263.239256,86.8317895 264.31203,77.7146842 265.922047,76.3736316 C267.531208,75.0334342 269.408135,73.9600789 272.358691,73.9600789 C275.309248,73.9600789 285.770078,82.0046842 284.429538,95.6811974 C283.087287,109.356855 275.309248,116.328961 271.285917,117.937711 C267.262586,119.546461 266.726199,117.670013 265.922047,116.596658 C265.116183,115.524158 263.239256,86.8317895 263.239256,86.8317895" id="Fill-7" fill="#FEDDCC"></path>
                    <path d="M159.705093,123.568849 C159.168706,122.496349 151.122045,110.429441 147.903723,109.624638 C144.684545,108.820691 134.760101,111.501941 137.174271,126.250099 C139.58844,140.999112 159.168706,152.52977 159.168706,152.52977 C159.168706,152.52977 162.65565,157.35602 166.142593,152.261217 C169.629537,147.166414 167.215367,145.557664 167.215367,145.557664 L159.705093,123.568849 Z" id="Fill-9" fill="#FEDDCC"></path>
                    <path d="M142.8095,127.098263 C142.632415,127.098263 142.457897,127.017013 142.344118,126.865632 C141.588728,125.858132 141.647756,120.692342 143.31509,118.333526 C144.168005,117.12675 145.382789,116.694842 146.73445,117.117342 C151.140181,118.493461 155.187465,125.562211 155.187465,126.518395 C155.187465,126.838263 154.928254,127.097408 154.609159,127.097408 C154.308885,127.097408 154.061651,126.868197 154.032565,126.575697 C153.79303,125.655434 150.175198,119.404316 146.389691,118.221487 C145.535065,117.954645 144.877199,118.177868 144.316859,118.923658 C142.827465,120.906158 142.847997,125.533987 143.27146,126.173724 C143.463944,126.429447 143.410904,126.791224 143.155115,126.982803 C143.051601,127.060632 142.930123,127.098263 142.8095,127.098263 L142.8095,127.098263 Z" id="Fill-11" fill="#CB4D4B"></path>
                    <path d="M149.513311,130.046783 C149.332805,130.046783 149.154865,129.962967 149.041941,129.804743 C148.906775,129.61573 145.749192,125.144414 146.746684,121.998757 C147.115396,120.833888 147.981999,120.005138 149.321684,119.536454 C149.622813,119.430401 149.953029,119.58948 150.059109,119.891388 C150.164333,120.193296 150.005213,120.523428 149.704084,120.628625 C148.712581,120.975862 148.106044,121.53777 147.8494,122.348559 C147.16587,124.505533 149.158287,127.977046 149.983826,129.131651 C150.169466,129.391651 150.108727,129.753428 149.849516,129.93902 C149.746858,130.011717 149.629657,130.046783 149.513311,130.046783" id="Fill-13" fill="#CB4D4B"></path>
                    <path d="M278.528511,92.5054342 C278.495147,92.5054342 278.461783,92.5028684 278.427564,92.4968816 C278.112747,92.4412895 277.903154,92.1410921 277.957904,91.8263553 C278.910056,86.4322105 276.887697,83.8681316 275.596775,82.8195789 C274.065463,81.5760263 272.242431,81.3331316 271.232963,81.7376711 C269.314973,82.5048421 268.714424,86.2765526 268.64513,87.6646447 C268.629732,87.9836579 268.356833,88.2248421 268.038594,88.2137237 C267.718644,88.1983289 267.47312,87.9263553 267.489375,87.6073421 C267.500496,87.373 267.811036,81.8599737 270.802655,80.6634605 C272.371609,80.0356974 274.642913,80.5531316 276.327356,81.9215526 C277.815039,83.1308947 280.152215,86.0507632 279.098262,92.0273421 C279.047788,92.3078684 278.803976,92.5054342 278.528511,92.5054342" id="Fill-15" fill="#CB4D4B"></path>
                    <path d="M273.431551,92.5054342 C273.356268,92.5054342 273.279275,92.4908947 273.205703,92.45925 C272.912273,92.3343816 272.773685,91.9956974 272.898586,91.7014868 C272.911418,91.6715526 274.126202,88.7234605 273.038029,86.1063553 C272.43577,84.6583947 271.229541,83.5585263 269.450994,82.83925 C269.154998,82.7195132 269.012132,82.3816842 269.1319,82.0857632 C269.251667,81.7898421 269.588727,81.6461579 269.884723,81.7658947 C271.9644,82.6083289 273.38621,83.9220132 274.110803,85.6718816 C275.382049,88.7422763 274.022689,92.0145132 273.964516,92.1522105 C273.871268,92.3728684 273.657398,92.5054342 273.431551,92.5054342" id="Fill-17" fill="#CB4D4B"></path>
                    <path d="M171.678073,119.826217 C171.563439,119.826217 171.447093,119.792007 171.346146,119.72102 C171.084369,119.537993 171.021063,119.177072 171.204992,118.915362 C171.311927,118.76227 173.883505,115.134243 178.440656,111.708914 C182.66588,108.534178 189.444718,104.977138 197.748879,106.065888 C198.065407,106.107796 198.288688,106.39773 198.246769,106.715033 C198.205706,107.032336 197.913987,107.255559 197.597458,107.212796 C182.421213,105.222599 172.252957,119.436217 172.152865,119.579901 C172.039942,119.740691 171.860291,119.826217 171.678073,119.826217" id="Fill-19" fill="#282727"></path>
                    <path d="M221.866192,100.78575 C221.683119,100.78575 221.503468,100.699368 221.390544,100.537724 C221.208326,100.276013 221.272488,99.9150921 221.53512,99.7329211 C221.71135,99.6097632 225.935718,96.6958816 231.82571,95.2077237 C239.685021,93.2218026 246.699971,94.8031842 252.112604,99.7816711 C252.347861,99.9980526 252.36326,100.36325 252.146823,100.598447 C251.930386,100.8345 251.56424,100.849039 251.328983,100.632658 C246.144763,95.8645658 239.678177,94.4174605 232.10973,96.3298289 C226.422488,97.7666711 222.238326,100.653184 222.196408,100.681408 C222.096316,100.751539 221.980826,100.78575 221.866192,100.78575" id="Fill-21" fill="#282727"></path>
                    <path d="M193.199684,124.030691 C193.805365,127.167796 192.64362,130.031217 190.604152,130.425493 C188.563828,130.818914 186.419135,128.59523 185.812599,125.45727 C185.206062,122.320164 186.368662,119.457599 188.40813,119.063322 C190.448454,118.669046 192.593147,120.893586 193.199684,124.030691" id="Fill-23" fill="#282727"></path>
                    <path d="M242.681859,113.61598 C243.288395,116.753086 242.126651,119.616507 240.086327,120.010783 C238.046859,120.404204 235.901311,118.18052 235.294774,115.042559 C234.689093,111.905454 235.850837,109.042888 237.890306,108.648612 C239.93063,108.254336 242.076178,110.478875 242.681859,113.61598" id="Fill-25" fill="#282727"></path>
                    <path d="M211.498096,140.945145 C211.430512,140.945145 211.362074,140.933171 211.295346,140.908368 C210.995928,140.796329 210.843652,140.462776 210.956576,140.162579 C211.068644,139.864092 213.748868,132.844092 217.864591,132.844092 C221.8691,132.844092 225.819715,135.336329 227.325363,137.745605 C227.494748,138.015868 227.412622,138.373368 227.141434,138.542711 C226.870247,138.712053 226.513511,138.629092 226.344125,138.358829 C225.005297,136.21725 221.467024,134.001263 217.864591,134.001263 C215.107373,134.001263 212.725712,138.742842 212.039615,140.569684 C211.953212,140.802316 211.732498,140.945145 211.498096,140.945145" id="Fill-27" fill="#CB4D4B"></path>
                    <path d="M211.427091,164.974789 C210.231127,163.978408 211.115695,162.042947 212.652996,162.289263 C215.986808,162.823803 220.501185,163.145382 224.520238,162.063474 C228.712099,160.935382 232.36415,158.729658 234.777464,156.996895 C235.968295,156.142487 237.551792,157.278276 237.136883,158.684329 C236.088062,162.242224 233.453179,167.091566 226.835172,169.0065 C220.3241,170.890645 214.82763,167.805711 211.427091,164.974789" id="Fill-29" fill="#CB4D4B"></path>
                    <g transform="translate(0.000000, 459.276316)">
                        <mask id="mask-6" fill="white">
                            <use xlink:href="#path-5"></use>
                        </mask>
                        <g id="Clip-32"></g>
                        <path d="M100.930846,63.8574539 C100.930846,63.8574539 12.3046503,143.014625 6.43946761,160.930678 C0.574284884,178.84673 -12.4589792,196.437783 31.5290357,232.921599 C42.2807301,241.390414 297.733562,230.641467 297.733562,230.641467 C297.733562,230.641467 305.228438,207.187586 301.317175,196.762783 C297.407624,186.338836 278.509177,168.749493 258.63377,167.119362 C255.049301,170.70377 245.274653,178.195533 245.274653,178.195533 L138.72774,171.029625 C162.857667,175.263776 170.97459,163.588295 183.721846,171.270463 C189.912967,168.01362 240.313019,167.119362 240.313019,167.119362 C240.313019,167.119362 292.846195,200.346336 337.159293,183.406993 C381.472391,166.468507 473.357117,0.336203947 473.357117,0.336203947 L313.373479,34.5407434 L100.930846,63.8574539 Z" id="Fill-31" fill="#594B42" mask="url(#mask-6)"></path>
                    </g>
                    <path d="M455.220562,491.066362 C453.154574,484.511625 451.200654,478.505967 451.200654,478.505967 L301.317689,620.206822 L280.464466,651.153664 C280.464466,651.153664 289.086866,651.883204 299.719649,652.741888 C299.214914,651.872941 298.634898,650.976625 297.983021,650.061493 C311.127498,649.520112 324.733079,647.43327 337.158951,642.683138 C369.217273,630.428928 426.169258,540.096888 455.220562,491.066362" id="Fill-33" fill="#3D2C23"></path>
                    <path d="M177.74207,632.939809 L245.274653,637.471849 L269.41207,632.305204 L333.57491,535.186651 L322.82236,530.300533 L289.587751,554.73198 C289.587751,554.73198 261.565591,599.358757 260.91457,600.988033 C260.262693,602.616454 182.063108,627.047046 182.063108,627.047046 L177.74207,632.939809 Z" id="Fill-35" fill="#3D2C23"></path>
                    <path d="M292.194489,645.940836 L324.778077,647.244257 C324.778077,647.244257 343.34973,647.570112 356.382994,635.516888 C369.417114,623.46452 387.663684,615.646559 395.482787,615.646559 C403.3036,615.646559 412.100519,619.555112 425.78566,630.631625 C430.347089,633.888467 431.976782,635.842743 445.010046,634.214322 C458.042454,632.585901 459.346208,632.260046 462.604738,632.260046 C465.863268,632.260046 492.25488,635.516888 493.558634,690.895178 C493.558634,714.023204 482.155062,714.999914 476.940901,714.999914 C471.727596,714.999914 448.593659,694.477875 448.593659,694.477875 C448.593659,694.477875 440.447762,688.940046 418.616723,688.289191 C396.786541,687.63748 388.966582,685.682349 385.382969,685.682349 C381.797645,685.682349 297.407795,688.289191 297.407795,688.289191 L290.239713,684.053928 L292.194489,645.940836 Z" id="Fill-37" fill="#FEDDCC"></path>
                    <path d="M301.317432,573.299401 L250.813213,638.123217 C250.813213,638.123217 261.372424,643.336046 288.610106,645.941178 C291.348503,643.336046 339.114326,597.729993 339.114326,597.729993 L301.317432,573.299401 Z" id="Fill-39" fill="#F2A98F"></path>
                    <path d="M355.405777,307.162289 C355.405777,307.162289 375.607123,433.227224 375.933061,442.999461 C376.259,452.772553 326.407513,501.634592 326.407513,501.634592 L326.732596,476.226434 C326.732596,476.226434 323.528817,358.846697 324.777821,356.350184 C326.407513,353.093342 332.923718,301.299461 332.923718,301.299461 L355.405777,307.162289 Z" id="Fill-41" fill="#F4CCBA"></path>
                    <path d="M295.77853,517.270513 C295.77853,517.270513 429.69564,362.865579 461.953289,361.562158 C494.210083,360.259592 511.805631,378.175645 513.10853,383.713474 C514.411429,389.250447 519.950673,418.894724 483.784327,461.241368 C447.616271,503.588868 360.618912,615.972158 360.618912,615.972158 C360.618912,615.972158 321.193181,627.373671 295.77853,564.178276 C290.565224,532.580579 295.77853,517.270513 295.77853,517.270513" id="Fill-43" fill="#594B42"></path>
                    <path d="M322.822275,541.701447 C322.68112,541.701447 322.53911,541.655263 322.419343,541.562039 C322.136179,541.338816 322.088272,540.93 322.310697,540.646908 C325.225323,536.947895 393.714335,450.034342 396.62725,446.798026 C397.126851,446.244671 398.280041,444.848882 399.87637,442.917697 C407.543197,433.642368 425.498047,411.922961 432.385531,409.168158 C432.72088,409.034737 433.099002,409.197237 433.232458,409.531645 C433.366768,409.866053 433.204227,410.244934 432.870589,410.378355 C426.290223,413.009145 408.485082,434.549803 400.880705,443.748158 C399.274966,445.691316 398.114077,447.095658 397.596511,447.670395 C394.711826,450.875066 324.04818,540.547697 323.334708,541.453421 C323.205531,541.615921 323.015614,541.701447 322.822275,541.701447" id="Fill-45" fill="#2B3541"></path>
                    <path d="M320.867328,542.027217 C320.867328,542.027217 316.3059,543.981493 317.608798,547.239191 C318.912552,550.496888 335.530285,582.094586 351.49614,586.980704 C367.461996,591.866822 373.652262,592.518533 376.584853,590.890112 C379.517444,589.261691 384.404811,584.374717 384.404811,584.374717 C384.404811,584.374717 387.98928,588.284125 384.404811,593.496099 C380.820343,598.707217 364.529404,617.27498 364.529404,617.27498 C364.529404,617.27498 340.091713,624.115375 317.608798,599.684783 C295.126738,575.254191 297.407453,566.132809 297.407453,566.132809 C297.407453,566.132809 315.328084,535.838533 320.867328,542.027217" id="Fill-47" fill="#3D2C23"></path>
                    <path d="M320.867328,542.027217 C320.867328,542.027217 314.677062,543.655638 315.979961,546.913336 C317.283715,550.171033 333.574654,584.700572 349.541365,589.586691 C365.50722,594.472809 373.9782,593.821954 376.910792,592.192678 C379.842527,590.564257 384.404811,584.374717 384.404811,584.374717 C384.404811,584.374717 387.98928,588.284125 384.404811,593.496099 C380.820343,598.707217 364.529404,617.27498 364.529404,617.27498 C364.529404,617.27498 340.091713,624.115375 317.608798,599.684783 C295.126738,575.254191 297.407453,566.132809 297.407453,566.132809 C297.407453,566.132809 315.328084,535.838533 320.867328,542.027217" id="Fill-49" fill="#91877A"></path>
                    <path d="M243.971326,637.471763 C243.971326,637.471763 255.049815,629.653803 262.542979,630.631368 C270.037855,631.608934 288.936301,638.774329 295.452506,648.873276 C301.96871,658.971368 303.272464,668.09275 302.620587,672.653013 C301.96871,677.213276 299.362913,690.894921 298.385097,691.871632 L248.206816,691.871632 C248.206816,691.871632 255.375753,685.682092 256.352713,679.167553 C257.330529,672.653013 268.083079,654.08525 262.217896,647.244855 C256.352713,640.403605 249.510571,637.471763 243.971326,637.471763" id="Fill-51" fill="#3D2C23"></path>
                    <path d="M243.971326,637.471763 C243.971326,637.471763 255.049815,629.653803 262.542979,630.631368 C270.037855,631.608934 288.936301,638.774329 295.452506,648.873276 C301.96871,658.971368 303.272464,668.09275 302.620587,672.653013 C301.96871,677.213276 299.362913,690.894921 298.385097,691.871632 L248.206816,691.871632 C248.206816,691.871632 257.656468,685.682092 258.633428,679.167553 C259.611243,672.653013 269.060895,653.433539 263.194856,646.592289 C257.330529,639.751895 249.510571,637.471763 243.971326,637.471763" id="Fill-53" fill="#91877A"></path>
                    <polygon id="Fill-55" fill="#FEDDCC" points="73.8866736 325.078513 45.2134925 381.758513 1.22633306 537.141013 39.3483098 515.967263 92.7851204 408.144237 101.256956 377.524105"></polygon>
                    <path d="M266.966162,214.742895 C266.966162,214.742895 273.780074,218.148553 274.628712,220.838355 C270.631901,225.042829 250.842898,243.641382 225.754185,245.269803 C200.664617,246.899079 169.058845,233.217434 172.643313,220.1875 C172.643313,220.1875 177.856619,213.02125 190.889883,208.134276 C193.170597,206.18 177.204742,208.134276 174.924027,209.763553 C169.058845,213.997961 166.127109,218.558224 166.127109,218.558224 L123.738845,242.663816 C123.738845,242.663816 103.448529,245.394671 116.570763,268.723684 C125.042599,312.700461 99.3772915,525.624211 84.6390523,535.186908 C110.379642,535.186908 166.423105,544.959145 179.782308,553.102961 C193.141511,561.246776 279.161054,550.171118 293.172134,542.027303 C307.183213,533.883487 344.471951,488.887237 338.78813,488.604145 C326.182607,487.978947 318.860539,327.472566 338.136253,313.351316 C348.960664,305.422171 339.765946,263.186711 339.765946,263.186711 C339.765946,263.186711 331.945988,250.155921 326.08166,247.224934 C320.215622,244.293092 282.44867,224.096908 281.470855,221.164211 C276.583488,211.717829 264.033571,212.788618 266.966162,214.742895" id="Fill-57" fill="#9C352A"></path>
                    <path d="M382.123669,361.5625 C382.123669,361.5625 341.105887,269.515658 333.267963,259.673289 C325.43004,249.830066 317.283287,252.111053 317.283287,252.111053 C317.283287,252.111053 307.508553,251.459342 307.508553,280.125197 C307.508553,308.791053 311.093022,354.070395 322.822532,381.758684 C345.631385,391.205066 382.123669,361.5625 382.123669,361.5625" id="Fill-59" fill="#9C352A"></path>
                    <path d="M48.4720224,364.494086 C48.4720224,364.494086 94.4139576,382.410138 113.312404,387.296257 C124.390893,363.842375 117.222811,255.042638 117.222811,255.042638 C117.222811,255.042638 134.10831,231.771783 99.6272633,255.042638 C82.1651703,266.827309 54.0112666,327.358559 48.4720224,364.494086" id="Fill-61" fill="#9C352A"></path>
                    <path d="M114.702904,384.431638 C114.652431,384.431638 114.601102,384.426507 114.548918,384.417099 C114.107489,384.332428 113.817481,383.906507 113.902174,383.464336 C114.015097,382.874204 125.118395,323.914928 118.698004,281.550322 C118.630421,281.105586 118.936684,280.690783 119.381534,280.623217 C119.826385,280.553941 120.241293,280.861836 120.308876,281.305717 C126.771185,323.949993 115.615703,383.176967 115.501924,383.77052 C115.427498,384.16052 115.08616,384.431638 114.702904,384.431638" id="Fill-63" fill="#5B1D12"></path>
                    <path d="M321.099591,378.222599 C320.760821,378.222599 320.445148,378.010493 320.329658,377.672664 C320.268919,377.499046 314.283113,360.025164 309.848296,337.264046 C305.747972,316.225428 302.169492,286.225362 308.407664,262.785164 C308.523154,262.350691 308.96886,262.092401 309.404301,262.207862 C309.838885,262.323322 310.098096,262.768914 309.981751,263.204243 C303.825704,286.338257 307.377664,316.066349 311.442914,336.930493 C315.855488,359.583849 321.809641,376.968783 321.869525,377.142401 C322.015812,377.567467 321.790821,378.03102 321.365646,378.17727 C321.276676,378.207204 321.187706,378.222599 321.099591,378.222599" id="Fill-65" fill="#5B1D12"></path>
                    <path d="M267.757311,485.021105 C267.757311,483.392684 272.31874,466.779197 277.857984,457.332816 C283.396373,447.885579 311.744471,435.507355 313.699247,435.507355 C315.654022,435.507355 321.193267,442.34775 321.193267,445.279592 C325.429612,445.279592 333.900592,444.953737 338.136938,455.378539 C344.328059,455.378539 353.776855,458.635382 351.170202,472.968737 C351.170202,472.968737 345.305019,486.323671 341.720551,487.952947 C338.136938,489.581368 267.757311,485.021105 267.757311,485.021105" id="Fill-67" fill="#FEDDCC"></path>
                    <path d="M286.003111,476.877717 C285.898743,476.877717 285.793518,476.852914 285.695993,476.799888 C285.379465,476.629691 285.259698,476.23627 285.429083,475.918967 C285.738767,475.338243 293.313203,461.589888 317.685877,451.519164 C318.018659,451.380612 318.400204,451.538836 318.537081,451.872388 C318.674814,452.20423 318.51655,452.585678 318.183767,452.72252 C294.282463,462.599954 286.652422,476.396204 286.577995,476.533901 C286.459939,476.752849 286.234947,476.877717 286.003111,476.877717" id="Fill-69" fill="#F2A98F"></path>
                    <path d="M319.889855,474.271816 C319.735012,474.271816 319.58017,474.217079 319.45527,474.105039 C319.187504,473.864711 319.164406,473.453329 319.404797,473.184776 C319.752978,472.796487 327.998966,463.632342 333.230237,460.363526 C333.534788,460.172803 333.936865,460.265171 334.127637,460.5705 C334.318409,460.875829 334.226017,461.277803 333.919755,461.467671 C328.844182,464.639842 320.459605,473.961355 320.374913,474.054579 C320.246591,474.198263 320.06865,474.271816 319.889855,474.271816" id="Fill-71" fill="#F2A98F"></path>
                    <path d="M48.4720224,506.846138 L63.7860008,493.491204 C63.7860008,493.491204 197.051233,517.595941 198.029049,518.899362 C208.781599,511.407257 265.476084,471.014033 312.395835,468.733046 C327.058792,475.575151 329.665444,476.877717 329.665444,476.877717 C329.665444,476.877717 269.386491,504.240151 267.757654,504.891862 C266.127961,505.543572 210.084498,528.996599 210.084498,528.996599 L176.523949,535.186993 L48.4720224,506.846138 Z" id="Fill-73" fill="#FCEED4"></path>
                    <path d="M62.8084419,621.509901 C59.8758505,608.154967 37.3937907,502.286217 37.3937907,502.286217 L176.524206,529.975362 C176.524206,529.975362 181.737512,517.922138 210.410693,523.134112 C244.297179,510.104178 343.67507,468.733388 343.67507,468.733388 L340.091457,523.134112 L320.867071,542.026875 C320.867071,542.026875 319.238234,538.444178 311.744214,545.936283 C308.160601,549.519836 297.407196,566.132467 297.407196,566.132467 C297.407196,566.132467 297.407196,570.041875 299.68791,575.253849 C297.082113,581.442533 283.071033,595.124178 283.071033,595.124178 L263.520709,618.252204 C263.520709,618.252204 245.274995,619.555625 239.083874,622.161612 C232.892752,624.767599 220.837304,631.282993 220.837304,631.282993 C220.837304,631.282993 198.02845,632.259704 189.231532,634.865691 C182.062595,629.979572 69.3255017,616.623783 62.8084419,621.509901" id="Fill-75" fill="#742311"></path>
                    <path d="M196.94618,634.221079 C196.94618,634.221079 88.223863,617.27575 64.1121105,618.904171 C40.000358,620.532592 65.7409477,630.631539 65.7409477,630.631539 L198.02922,640.728776 L196.94618,634.221079 Z" id="Fill-77" fill="#594B42"></path>
                    <path d="M195.748591,634.540092 C195.704106,634.540092 195.658766,634.535816 195.613425,634.525553 C195.151465,634.428053 148.494347,624.719105 71.5737076,620.857592 C71.2135498,620.839632 70.9372292,620.533447 70.9543657,620.174237 C70.9731595,619.815026 71.2802774,619.541342 71.6387243,619.555882 C148.673143,623.423382 195.419231,633.152855 195.882902,633.251211 C196.234505,633.325618 196.460352,633.671145 196.385925,634.023513 C196.320909,634.329697 196.050576,634.540092 195.748591,634.540092" id="Fill-79" fill="#2B3541"></path>
                    <path d="M39.0228846,509.452039 C39.0228846,509.452039 19.7984992,513.687303 7.74305066,524.437105 C-8.22280482,538.769605 5.78741944,586.979934 5.78741944,586.979934 C5.78741944,586.979934 17.8437234,593.821184 20.4503762,600.010724 C27.6184576,600.336579 76.8197782,597.078882 76.8197782,597.078882 C76.8197782,597.078882 97.6730008,604.245132 95.7173696,596.753026 C106.469919,600.662434 113.638001,602.290855 114.941755,597.404737 C116.245509,592.518618 108.099612,582.419671 100.278798,581.768816 C81.0552683,579.814539 45.8650274,560.920921 45.8650274,560.920921 C45.8650274,560.920921 43.2583746,556.034803 48.4716802,555.708947 C53.6849859,555.383092 104.189205,566.457895 104.189205,566.457895 C104.189205,566.457895 112.335102,564.177763 104.189205,553.428816 C96.0433081,542.679013 44.5621287,536.163618 44.5621287,536.163618 L39.0228846,509.452039 Z" id="Fill-81" fill="#FEDDCC"></path>
                    <path d="M93.7624228,596.753197 C93.6914178,596.753197 93.6187018,596.741224 93.5468414,596.716421 C76.2164925,590.641487 42.7774228,579.085171 40.261451,578.833724 C39.9030042,578.797803 39.6420822,578.478789 39.6780125,578.120434 C39.7130872,577.762934 40.0330374,577.499513 40.3906287,577.537145 C43.6885108,577.867276 91.926559,594.768132 93.9780042,595.487408 C94.3176304,595.605434 94.4964261,595.978329 94.3775141,596.317013 C94.2834111,596.585566 94.031044,596.753197 93.7624228,596.753197" id="Fill-83" fill="#F2A98F"></path>
                    <path d="M68.0223463,596.101743 C67.9804277,596.101743 67.9376537,596.097467 67.895735,596.088914 C67.6159925,596.034178 39.7931603,590.59898 23.7990739,592.838059 C23.4431935,592.88852 23.1129776,592.639638 23.0633596,592.282993 C23.0137417,591.926349 23.2618314,591.597072 23.6185673,591.547467 C39.831657,589.278454 67.8666487,594.755559 68.1481022,594.811151 C68.5014161,594.880428 68.7306852,595.224243 68.6613912,595.576612 C68.5997965,595.887072 68.3268978,596.101743 68.0223463,596.101743" id="Fill-85" fill="#F2A98F"></path>
                    <path d="M18.4946595,549.194237 C18.1960963,549.194237 17.9266196,548.987263 17.8590365,548.683645 C17.1943272,545.6945 19.8377658,534.074895 20.1414618,532.7595 C20.2227326,532.409697 20.5717691,532.189895 20.9225166,532.272 C21.2732641,532.35325 21.4922674,532.702197 21.4109967,533.052855 C20.6051329,536.546605 18.6229817,546.114434 19.1319934,548.400553 C19.2089867,548.752066 18.9882724,549.101013 18.6366694,549.177987 C18.5887625,549.189105 18.541711,549.194237 18.4946595,549.194237" id="Fill-87" fill="#F2A98F"></path>
                    <path d="M12.304137,572.973717 C12.0201171,572.973717 11.7600507,572.78727 11.6779244,572.500757 C11.0157816,570.182993 11.5863879,558.907204 11.6539709,557.629441 C11.6727915,557.27023 11.9781985,556.993125 12.3392118,557.012796 C12.6985141,557.031612 12.9739792,557.338651 12.9551586,557.697862 C12.7755075,561.110362 12.421338,570.358322 12.9312051,572.142401 C13.030441,572.489638 12.8294028,572.848849 12.4837882,572.948914 C12.4239045,572.965164 12.3631653,572.973717 12.304137,572.973717" id="Fill-89" fill="#F2A98F"></path>
                    <path d="M9.04680482,584.374461 C8.83635631,584.374461 8.62932973,584.272684 8.5044294,584.084526 C7.07491944,581.941237 8.86287625,575.478868 9.07161379,574.749329 C9.16999419,574.402947 9.53015199,574.201105 9.87662209,574.302026 C10.2230922,574.400382 10.4232749,574.761303 10.3248945,575.106829 C9.60115698,577.640118 8.7619294,582.121697 9.58832475,583.361829 C9.78850748,583.661171 9.70723671,584.065711 9.40781811,584.264987 C9.29660548,584.339395 9.17084967,584.374461 9.04680482,584.374461" id="Fill-91" fill="#F2A98F"></path>
                </g>
            </g>
        </g>
    </g>
</svg>